<?xml version="1.0" standalone="no"?>
<svg xmlns="http://www.w3.org/2000/svg" xmlns:xlink="http://www.w3.org/1999/xlink" width="261pt" height="443pt" viewBox="0.00 0.00 261.36 443.15">
<g id="graph0" class="graph" transform="translate(33.381900072674966,375.0440129095658) scale(0.8221850767835159)" data-name="G">

<polygon fill="white" stroke="none" points="-4,4 -4,-439.15 257.36,-439.15 257.36,4 -4,4"/>
<!-- Q -->
<g id="node1" class="node" pointer-events="visible" data-name="Q">

<ellipse fill="lightblue" stroke="black" cx="145.08" cy="-410.45" rx="20.86" ry="20.86"/>
<ellipse fill="none" stroke="black" cx="145.08" cy="-410.45" rx="24.89" ry="24.89"/>
<text text-anchor="middle" x="145.08" y="-406.25" font-family="Times,serif" font-size="14.00">q0</text>
</g>
<!-- Q&#45;&gt;Q -->
<g id="edge1" class="edge" data-name="Q-&gt;Q">

<path fill="none" stroke="black" d="M168.35,-419.88C178.76,-420.78 187.77,-417.64 187.77,-410.45 187.77,-406.08 184.43,-403.2 179.46,-401.82"/>
<polygon fill="black" stroke="black" points="180.09,-398.36 169.86,-401.13 179.59,-405.34 180.09,-398.36"/>
<text text-anchor="middle" x="207.86" y="-406.25" font-family="Times,serif" font-size="14.00"> x:x:+1</text>
</g>
<!-- Q1 -->

<!-- Q&#45;&gt;Q1 -->
<g id="edge3" class="edge" data-name="Q-&gt;Q4" data-comment="Q-&gt;Q1">

<path fill="none" stroke="black" d="M125.38,-394.91C115.11,-387.12 102.48,-377.21 91.69,-367.76 80.25,-357.74 68.12,-346.01 58.12,-336"/>
<polygon fill="black" stroke="black" points="60.87,-333.8 51.35,-329.15 55.89,-338.72 60.87,-333.8"/>
<text text-anchor="middle" x="111.77" y="-355.16" font-family="Times,serif" font-size="14.00"> a:y:+1</text>
</g>
<!-- Q8 -->
<g id="node6" class="node" pointer-events="visible" data-name="Q8">

<ellipse fill="lightblue" stroke="black" cx="221.08" cy="-25.2" rx="20.89" ry="20.89"/>
<text text-anchor="middle" x="221.08" y="-21" font-family="Times,serif" font-size="14.00">q5</text>
</g><g id="edge2" class="edge" data-name="Q-&gt;Q8" data-comment="Q8">

<path fill="none" stroke="black" d="M165.84,-395.85C188.35,-379.27 221.08,-349.02 221.08,-313.27 221.08,-313.27 221.08,-313.27 221.08,-122.89 221.08,-101.27 221.08,-76.93 221.08,-58.08"/>
<polygon fill="black" stroke="black" points="224.58,-58.09 221.08,-48.09 217.58,-58.09 224.58,-58.09"/>
<text text-anchor="middle" x="237.22" y="-213.88" font-family="Times,serif" font-size="14.00"> b:b:0</text>
</g>
<!-- Q&#45;&gt;Q8 -->

<!-- Q1&#45;&gt;Q1 -->

<!-- Q4 -->
<g id="node2" class="node" pointer-events="visible" data-name="Q4">

<ellipse fill="lightblue" stroke="black" cx="36.08" cy="-312.27" rx="20.89" ry="20.89"/>
<text text-anchor="middle" x="36.08" y="-308.07" font-family="Times,serif" font-size="14.00">q1</text>
</g>
<!-- Q1&#45;&gt;Q4 -->

<!-- Q4&#45;&gt;Q1 -->

<!-- Q4&#45;&gt;Q4 -->
<g id="edge6" class="edge" data-name="Q4-&gt;Q4">

<path fill="none" stroke="black" d="M55.59,-320.79C65.68,-322.1 74.77,-319.26 74.77,-312.27 74.77,-308.12 71.56,-305.43 66.85,-304.21"/>
<polygon fill="black" stroke="black" points="67.23,-300.72 57.1,-303.81 66.95,-307.71 67.23,-300.72"/>
<text text-anchor="middle" x="94.86" y="-308.07" font-family="Times,serif" font-size="14.00"> x:x:+1</text>
</g>
<!-- Q5 -->
<g id="node3" class="node" pointer-events="visible" data-name="Q5">

<ellipse fill="lightblue" stroke="black" cx="30.08" cy="-218.08" rx="20.89" ry="20.89"/>
<text text-anchor="middle" x="30.08" y="-213.88" font-family="Times,serif" font-size="14.00">q2</text>
</g>
<!-- Q4&#45;&gt;Q5 -->
<g id="edge7" class="edge" data-name="Q4-&gt;Q5">

<path fill="none" stroke="black" d="M34.77,-291.26C34,-279.39 33,-264.06 32.13,-250.59"/>
<polygon fill="black" stroke="black" points="35.64,-250.62 31.5,-240.87 28.65,-251.08 35.64,-250.62"/>
<text text-anchor="middle" x="54.16" y="-260.97" font-family="Times,serif" font-size="14.00"> b:x:+1</text>
</g>
<!-- Q5&#45;&gt;Q5 -->
<g id="edge8" class="edge" data-name="Q5-&gt;Q5">

<path fill="none" stroke="black" d="M49.59,-226.6C59.68,-227.91 68.77,-225.07 68.77,-218.08 68.77,-213.93 65.56,-211.24 60.85,-210.02"/>
<polygon fill="black" stroke="black" points="61.23,-206.53 51.1,-209.62 60.95,-213.53 61.23,-206.53"/>
<text text-anchor="middle" x="88.86" y="-213.88" font-family="Times,serif" font-size="14.00"> x:x:+1</text>
</g>
<!-- Q6 -->
<g id="node4" class="node" pointer-events="visible" data-name="Q6">

<ellipse fill="lightblue" stroke="black" cx="38.08" cy="-123.89" rx="20.89" ry="20.89"/>
<text text-anchor="middle" x="38.08" y="-119.69" font-family="Times,serif" font-size="14.00">q3</text>
</g>
<!-- Q5&#45;&gt;Q6 -->
<g id="edge9" class="edge" data-name="Q5-&gt;Q6">

<path fill="none" stroke="black" d="M15.33,-203.09C5.81,-192.28 -3.82,-176.82 1.9,-162.59 4.5,-156.12 8.81,-150.14 13.55,-144.93"/>
<polygon fill="black" stroke="black" points="15.93,-147.5 20.65,-138.01 11.05,-142.48 15.93,-147.5"/>
<text text-anchor="middle" x="22.16" y="-166.79" font-family="Times,serif" font-size="14.00"> b:b:+1</text>
</g>
<!-- Q6&#45;&gt;Q5 -->
<g id="edge10" class="edge" data-name="Q6-&gt;Q5">

<path fill="none" stroke="black" d="M41.71,-144.91C43.04,-155.25 43.84,-168.04 42.08,-179.39 41.68,-181.92 41.15,-184.52 40.52,-187.11"/>
<polygon fill="black" stroke="black" points="37.16,-186.15 37.76,-196.72 43.89,-188.08 37.16,-186.15"/>
<text text-anchor="middle" x="64.16" y="-166.79" font-family="Times,serif" font-size="14.00"> b:x:+1</text>
</g>
<g id="edge11" class="edge" data-name="Q6-&gt;Q6" data-comment="Q6-&gt;Q5">

<path fill="none" stroke="black" d="M57.59,-132.41C67.68,-133.72 76.77,-130.88 76.77,-123.89 76.77,-119.74 73.56,-117.06 68.85,-115.83"/>
<polygon fill="black" stroke="black" points="69.23,-112.34 59.1,-115.44 68.95,-119.34 69.23,-112.34"/>
<text text-anchor="middle" x="96.86" y="-119.69" font-family="Times,serif" font-size="14.00"> x:x:+1</text>
</g><g id="node5" class="node" pointer-events="visible" data-name="Q7" data-comment="Q6-&gt;Q5">

<ellipse fill="lightblue" stroke="black" cx="97.08" cy="-25.2" rx="20.89" ry="20.89"/>
<text text-anchor="middle" x="97.08" y="-21" font-family="Times,serif" font-size="14.00">q4</text>
</g><g id="edge12" class="edge" data-name="Q6-&gt;Q7" data-comment="Q6-&gt;Q5">

<path fill="none" stroke="black" d="M48.62,-105.61C57.46,-91.12 70.24,-70.19 80.45,-53.45"/>
<polygon fill="black" stroke="black" points="83.41,-55.31 85.63,-44.96 77.44,-51.67 83.41,-55.31"/>
<text text-anchor="middle" x="90.55" y="-72.6" font-family="Times,serif" font-size="14.00"> *:*:-1</text>
</g><g id="edge5" class="edge" data-name="Q7-&gt;Q" data-comment="Q6-&gt;Q5">

<path fill="none" stroke="black" d="M110.45,-41.79C124.65,-59.98 145.08,-91.59 145.08,-122.89 145.08,-313.27 145.08,-313.27 145.08,-313.27 145.08,-333.31 145.08,-355.7 145.08,-373.83"/>
<polygon fill="black" stroke="black" points="141.58,-373.83 145.08,-383.83 148.58,-373.83 141.58,-373.83"/>
<text text-anchor="middle" x="165.16" y="-213.88" font-family="Times,serif" font-size="14.00"> y:y:+1</text>
</g><!-- Q7&#45;&gt;Q7 -->
<g id="edge4" class="edge" data-name="Q7-&gt;Q7">

<path fill="none" stroke="black" d="M116.19,-34.48C126.44,-36.05 135.77,-32.96 135.77,-25.2 135.77,-20.59 132.48,-17.63 127.66,-16.31"/>
<polygon fill="black" stroke="black" points="127.81,-12.82 117.7,-15.98 127.58,-19.81 127.81,-12.82"/>
<text text-anchor="middle" x="157.74" y="-37.8" font-family="Times,serif" font-size="14.00">   a:a:-1</text>
<text text-anchor="middle" x="157.74" y="-21" font-family="Times,serif" font-size="14.00">   b:b:-1</text>
<text text-anchor="middle" x="157.74" y="-4.2" font-family="Times,serif" font-size="14.00">   x:x:-1</text>
</g>
</g>
</svg>